HIERARCHY
ROOT pelvis
{
OFFSET 0 0 0
CHANNELS 6 Xrotation Yrotation Zrotation Xposition Yposition Zposition
JOINT lfemur
{
OFFSET -0.111059 104.74 -0.455087
CHANNELS 3 Xrotation Yrotation Zrotation
JOINT ltibia
{
OFFSET -5.43723 -10.6762 -417.098
CHANNELS 3 Xrotation Yrotation Zrotation
JOINT lfoot
{
OFFSET -4.62719 -0.813499 -429.718
CHANNELS 3 Xrotation Yrotation Zrotation
JOINT ltoes
{
OFFSET 122.085 1.71335 0.964115
CHANNELS 3 Xrotation Yrotation Zrotation
JOINT ltoe_EF
{
OFFSET 52.4303 0.372808 0.598304
CHANNELS 3 Xrotation Yrotation Zrotation
End Site
{
OFFSET 0 0 0
}
}
}
}
}
}
JOINT rfemur
{
OFFSET 0.111059 -104.74 0.455087
CHANNELS 3 Xrotation Yrotation Zrotation
JOINT rtibia
{
OFFSET -2.25861 3.36807 -417.25
CHANNELS 3 Xrotation Yrotation Zrotation
JOINT rfoot
{
OFFSET -1.92806 -2.95471 -420.787
CHANNELS 3 Xrotation Yrotation Zrotation
JOINT rtoes
{
OFFSET 145.936 1.81132 -2.65028
CHANNELS 3 Xrotation Yrotation Zrotation
JOINT rtoe_EF
{
OFFSET 20.2563 0.216067 -0.348232
CHANNELS 3 Xrotation Yrotation Zrotation
End Site
{
OFFSET 0 0 0
}
}
}
}
}
}
JOINT thorax
{
OFFSET -50.1838 0.782719 192.402
CHANNELS 3 Xrotation Yrotation Zrotation
JOINT lclavicle
{
OFFSET 61.3126 -0.421503 353.619
CHANNELS 3 Xrotation Yrotation Zrotation
JOINT lhumerus
{
OFFSET -61.5629 177.517 26.2422
CHANNELS 3 Xrotation Yrotation Zrotation
JOINT lradius
{
OFFSET -24.188 2.8579 -287.634
CHANNELS 3 Xrotation Yrotation Zrotation
JOINT lhand
{
OFFSET 3.1155 53.9434 -242.867
CHANNELS 3 Xrotation Yrotation Zrotation
End Site
{
OFFSET 0 0 0
}
}
}
}
}
JOINT rclavicle
{
OFFSET 61.3126 -0.421503 353.619
CHANNELS 3 Xrotation Yrotation Zrotation
JOINT rhumerus
{
OFFSET -61.9828 -177.088 28.0822
CHANNELS 3 Xrotation Yrotation Zrotation
JOINT rradius
{
OFFSET -15.6822 -3.90625 -288.21
CHANNELS 3 Xrotation Yrotation Zrotation
JOINT rhand
{
OFFSET 71.4655 -101.499 215.626
CHANNELS 3 Xrotation Yrotation Zrotation
End Site
{
OFFSET 0 0 0
}
}
}
}
}
JOINT Neck_Root
{
OFFSET -0.649995 -0.403434 348.974
CHANNELS 3 Xrotation Yrotation Zrotation
JOINT head
{
OFFSET 34.0699 -9.18338 100.843
CHANNELS 3 Xrotation Yrotation Zrotation
End Site
{
OFFSET 0 0 0
}
}
}
}
}
MOTION
Frames: 7
Frame Time: 0.00833333
-2.231186 3.552506 5.514918 -112.746582 210.854370 948.584900 3.044554 -8.407777 26.106675 3.889081 13.527198 -0.625597 0.153176 11.401140 -3.963562 -2.203809 -8.557791 0.857610 0.000000 0.000000 0.000000 -1.833855 -8.511872 -24.660079 -1.356449 8.104736 -0.106272 -6.243175 20.023921 -0.448970 1.441800 -7.399471 -0.197698 0.000000 0.000000 0.000000 -2.638173 -3.660631 4.328274 -16.636628 1.376982 0.308675 57.657595 -2.243018 -0.938355 -38.960138 -56.236857 39.076152 -23.293012 1.778370 8.815048 19.558696 -1.398283 -1.589132 -58.776486 11.642245 -0.255765 16.132573 -70.900482 -1.663880 4.685006 -3.523792 -3.451689 0.000000 0.000000 0.000000 -2.277824 -1.650261 1.078792 
-2.191175 3.429928 5.445258 -112.738518 210.809708 948.194641 3.045270 -8.377203 26.137666 3.947716 13.737023 -0.642720 0.139538 11.233675 -3.916170 -2.202739 -8.553033 0.851734 0.000000 0.000000 0.000000 -1.879586 -8.558981 -24.503268 -1.405117 8.433552 -0.106070 -6.331882 19.788615 -0.594102 1.466324 -7.518015 -0.185557 0.000000 0.000000 0.000000 -2.648211 -3.576139 4.342348 -17.188133 1.367126 0.118128 57.342778 -2.085612 -2.736988 -35.986764 -55.601358 41.655848 -24.148861 2.649149 9.269268 20.043118 -1.429204 -1.504570 -58.355313 11.641260 1.390735 11.469913 -69.709965 -3.920009 4.848619 -3.039433 -3.377630 0.000000 0.000000 0.000000 -1.557321 -1.518284 0.599086 
-2.148141 3.311128 5.368544 -112.736664 210.832794 947.798523 3.039491 -8.338562 26.172650 3.999811 13.926286 -0.658547 0.124501 11.086520 -3.876659 -2.211401 -8.589859 0.849116 0.000000 0.000000 0.000000 -1.931880 -8.616165 -24.343583 -1.455590 8.774228 -0.105751 -6.415623 19.551529 -0.736266 1.468470 -7.518486 -0.173907 0.000000 0.000000 0.000000 -2.640288 -3.494897 4.336790 -17.556516 1.347606 -0.029230 56.718511 -1.711210 -4.509975 -38.945325 -56.678778 50.112491 -19.818439 7.934135 6.805996 20.489378 -1.453549 -1.416378 -57.916549 11.572735 3.130932 7.531859 -68.435514 -6.356475 5.081816 -3.006965 -3.435143 0.000000 0.000000 0.000000 -0.889396 -1.390869 0.147935 
-2.108282 3.206442 5.291463 -112.762711 210.830704 947.429260 3.036917 -8.325751 26.205031 4.057355 14.135775 -0.676158 0.126151 10.926822 -3.819756 -2.212897 -8.594152 0.843532 0.000000 0.000000 0.000000 -1.979791 -8.686255 -24.188851 -1.504052 9.102949 -0.105103 -6.495502 19.332079 -0.869808 1.483898 -7.589151 -0.162733 0.000000 0.000000 0.000000 -2.647116 -3.430615 4.315615 -18.048645 1.339544 -0.133950 56.284998 -1.738369 -6.361064 -36.032583 -55.853994 53.176529 -20.505185 8.888036 7.119459 20.892500 -1.493576 -1.191571 -57.383228 11.627622 4.827033 4.255715 -67.051830 -8.603854 5.274732 -3.400452 -3.549698 0.000000 0.000000 0.000000 -0.189087 -1.264388 -0.293399 
-2.069301 3.093751 5.215671 -112.788979 210.826202 947.084717 3.036772 -8.296804 26.253815 4.112319 14.328536 -0.692742 0.104621 10.785975 -3.789317 -2.214649 -8.601491 0.840319 0.000000 0.000000 0.000000 -2.024064 -8.739869 -24.031785 -1.549781 9.419135 -0.104167 -6.574639 19.114728 -1.003971 1.487727 -7.600180 -0.151686 0.000000 0.000000 0.000000 -2.643868 -3.354677 4.287816 -18.492120 1.320369 -0.265739 55.782347 -1.738185 -8.005484 -32.798024 -54.778491 54.890189 -21.275668 9.734210 7.531313 21.355147 -1.523626 -1.052487 -56.959557 11.516340 6.575462 1.402141 -65.549747 -10.536941 5.442007 -3.935704 -3.689570 0.000000 0.000000 0.000000 0.471691 -1.135978 -0.740878 
-2.023108 2.975084 5.148561 -112.798599 210.832520 946.739624 3.027587 -8.253102 26.306320 4.164228 14.504842 -0.708435 0.071438 10.671870 -3.779227 -2.216822 -8.611600 0.839520 0.000000 0.000000 0.000000 -2.073221 -8.774051 -23.876982 -1.591031 9.713968 -0.103055 -6.673311 18.909694 -1.151030 1.487563 -7.587295 -0.139737 0.000000 0.000000 0.000000 -2.650368 -3.267230 4.249022 -18.887740 1.295183 -0.403324 55.226760 -1.742299 -9.640055 -29.698815 -53.596945 56.310654 -21.948358 10.676936 7.841140 21.806960 -1.551489 -0.921556 -56.528468 11.353580 8.292296 -1.101596 -63.947487 -11.943424 5.544659 -4.416255 -3.782657 0.000000 0.000000 0.000000 1.122728 -1.021267 -1.189244 
-1.976609 2.861566 5.071727 -112.834061 210.858261 946.384521 3.015742 -8.212158 26.340610 4.211854 14.679920 -0.723770 0.067512 10.538148 -3.735505 -2.215761 -8.608274 0.834734 0.000000 0.000000 0.000000 -2.117546 -8.804216 -23.717476 -1.628021 9.982495 -0.101782 -6.772250 18.713493 -1.295718 1.498362 -7.630766 -0.127322 0.000000 0.000000 0.000000 -2.644445 -3.184710 4.217833 -19.269351 1.263856 -0.556870 54.638921 -1.773429 -11.269286 -26.766598 -52.278915 57.637802 -22.654211 11.547366 8.090275 22.240343 -1.578983 -0.783413 -56.097705 11.224814 9.968397 -3.307896 -62.344700 -12.838432 5.627137 -4.712005 -3.818504 0.000000 0.000000 0.000000 1.751546 -0.910251 -1.569399 
